<svg xmlns="http://www.w3.org/2000/svg" xmlns:xlink="http://www.w3.org/1999/xlink" version="1.1" viewBox="0 0 10.701183866489954 10.018783619558091"><g transform="matrix(0.852992919521287,0,0,0.852992919521287,5.346432663733172,7.238880907421255)"><rect width="12.427847823660624" height="12.427847823660624" x="-6.209047822689808" y="-8.827649121757533" fill="#fefefe"/><g transform="matrix(1,0,0,1,0,0)"><path d=" M -2.3548944632230477 0.6866770491548614 Q -2.3194115591563165 0.7520487824880931 -2.317168363404064 0.8093197880041226 L -2.359369711249548 0.8231778629073856 Q -2.362048928690863 0.769485947371598 -2.3935222869204504 0.710190688524435 Q -2.424995645150038 0.6508954296772721 -2.477357232289997 0.6059592060688681 Q -2.5532435904638504 0.5408342443175579 -2.616693118598014 0.536457329930454 Q -2.6801426467321767 0.5320804155433503 -2.719868873400476 0.5783710940294009 Q -2.7504776054235918 0.6140376823711121 -2.748223278007018 0.6528696023326448 Q -2.7459689505904445 0.6917015222941776 -2.7253831515836 0.7291344607207797 Q -2.7047973525767546 0.7665673991473818 -2.663614622898744 0.8229941904460892 Q -2.617555869837626 0.8875588190476302 -2.5939912064020194 0.9315014707332832 Q -2.5704265429664135 0.975444122418936 -2.5701853372166523 1.0250671193033067 Q -2.569944131466891 1.0746901161876776 -2.610972857370217 1.1224985218372054 Q -2.644186587863385 1.1612005645058707 -2.692354013314632 1.1758685270569047 Q -2.7405214387658794 1.190536489607939 -2.7989196079901957 1.1733637253794251 Q -2.857317777214512 1.1561909611509114 -2.9203034544988107 1.102137242897324 Q -2.9643175422396455 1.064364765081564 -2.995742659319281 1.0149941056112752 Q -3.027167776398916 0.9656234461409864 -3.039394944342316 0.9169151679525317 L -2.9982753019712467 0.8981755038340007 Q -2.985289270446108 0.9475350316399684 -2.9567354038310087 0.9918060910504581 Q -2.928181537215909 1.0360771504609478 -2.890997221710721 1.0679883817190898 Q -2.817387454282083 1.1311595946178605 -2.754045540112145 1.1341263958057128 Q -2.6907036259422075 1.137093196993565 -2.650326149656395 1.090043654925776 Q -2.6197174176332796 1.0543770665840646 -2.621971745049853 1.0155451466225318 Q -2.624226072466427 0.9767132266609991 -2.6448118714732716 0.939280288234397 Q -2.6653976704801163 0.901847349807795 -2.706688014122353 0.8440104453098358 Q -2.7527467671834707 0.7794458167082949 -2.7759319988282076 0.7358287898313985 Q -2.7991172304729446 0.6922117629545023 -2.8000096858402186 0.6433476296518699 Q -2.800902141207493 0.5944834963492376 -2.7605246649216806 0.5474339542814484 Q -2.7273109344285125 0.508731911612783 -2.6790897019951525 0.4947690056613748 Q -2.6308684695617925 0.4808060997099667 -2.5713320049648685 0.49895573836475005 Q -2.5117955403679444 0.5171053770195335 -2.4488098630836457 0.5711590952731209 Q -2.3903773672897786 0.6213053158216297 -2.3548944632230477 0.6866770491548614 M -2.864227819846779 0.27921032048691397 Q -2.878381191315036 0.3847135530254553 -2.993898542428683 0.4772324245689757 L -3.308449167420573 0.7291588112719399 L -3.3403306704524613 0.6893521564962913 L -3.027341090745891 0.43867602481418544 Q -2.92665366984278 0.3580345759688197 -2.9135827438278765 0.2719755793844246 Q -2.900511817812973 0.1859165828000296 -2.970526098981043 0.09849804682213459 Q -3.039915252638683 0.011860033486899457 -3.126751224884231 0.005817358237440895 Q -3.213587197129779 -0.00022531701201755627 -3.3142746180328904 0.08041613183334817 L -3.6272641977394606 0.33109226351545407 L -3.6591457007713495 0.2912856087398054 L -3.3445950757794596 0.03935922203684117 Q -3.2290777246658124 -0.05315964950667923 -3.1227180454092496 -0.043535792252903494 Q -3.0163583661526867 -0.03391193499912787 -2.933216407265604 0.06989757647462241 Q -2.8500744483785216 0.17370708794837264 -2.864227819846779 0.27921032048691397 M -3.461293514802056 -0.7818856668956949 L -3.5931961089150715 -0.5264513198194705 Q -3.571850133201084 -0.49581883182358844 -3.557692458520609 -0.4682405750323799 L -3.4663526218723835 -0.29031633766974435 L -3.262629370092166 -0.39490045063196255 L -3.239337711746868 -0.3495297701044905 L -3.862072542516093 -0.029840341835701167 L -3.9767040375096157 -0.2531352597258088 Q -4.0369883296974445 -0.3705652563851483 -4.015639444264705 -0.4658305443487071 Q -3.9942905588319664 -0.5610958323122659 -3.8955426070957038 -0.6117894416520311 Q -3.82170404859021 -0.6496954738610446 -3.7520307362475176 -0.6376900772746082 Q -3.682357423904825 -0.625684680688172 -3.625816901132073 -0.5659086881444768 L -3.4877820674300417 -0.8334836957308592 L -3.461293514802056 -0.7818856668956949 M -3.5977254119272017 -0.44768911178652915 Q -3.6488757204502082 -0.5473266847096051 -3.719857221008687 -0.5772077251611467 Q -3.790838721567166 -0.6070887656126884 -3.871794249567165 -0.5655291399377459 Q -3.9527497775671643 -0.5239695142628032 -3.96984077450319 -0.4488752546703899 Q -3.986931771439216 -0.37378099507797663 -3.93578146291621 -0.2741434221549007 L -3.844441626267984 -0.09621918479226513 L -3.5063855752789763 -0.26976487442389363 L -3.5977254119272017 -0.44768911178652915 M -4.287402810722111 -1.2611301151870893 Q -4.248507259811387 -1.3506755568318276 -4.141983594380767 -1.381879862676139 Q -4.036419601611684 -1.4128030486479792 -3.9553560698302688 -1.35839759106215 Q -3.874292538048853 -1.3039921334763207 -3.8371847148826452 -1.1773153421534213 L -3.7809607403883905 -0.9853808098459977 L -3.5611957008963904 -1.0497572606419194 L -3.5468585874003553 -1.0008139549035264 L -4.218629450476338 -0.8040300441736349 L -4.289190538466627 -1.0449078822194513 Q -4.326298361632835 -1.171584673542351 -4.287402810722111 -1.2611301151870893 M -3.976425115921259 -1.3147129793914973 Q -4.0400351488123825 -1.357558792671095 -4.12736536101226 -1.331976884276209 Q -4.214695573212138 -1.3063949758813231 -4.245613297482421 -1.235858855163305 Q -4.276531021752703 -1.165322734445287 -4.24504559603592 -1.0578393963531298 L -4.188821621541665 -0.8659048640457064 L -3.825105682819098 -0.9724492957123192 L -3.881329657313352 -1.1643838280197427 Q -3.912815083030135 -1.2718671661118999 -3.976425115921259 -1.3147129793914973 M -3.769913152113822 -2.1674950715088053 L -3.9868961508057947 -1.9789125212061878 Q -3.9783856987569757 -1.942559086623954 -3.9754253643669117 -1.9117007584077494 L -3.9563264328181114 -1.7126147699161074 L -3.728372975995181 -1.7344830465394838 L -3.7235027484502368 -1.683716119474115 L -4.420303708170985 -1.6168698590533135 L -4.444272867264729 -1.8667227746103243 Q -4.456878162086937 -1.9981195270148082 -4.401825890014099 -2.078745188808174 Q -4.3467736179412615 -2.15937085060154 -4.2362808943284 -2.1699707576111242 Q -4.153660209104368 -2.1778968142038764 -4.09335989440136 -2.1409864898119384 Q -4.03305957969835 -2.104076165420001 -4.002620613060035 -2.0276335770939142 L -3.775451842262974 -2.2252300081713816 L -3.769913152113822 -2.1674950715088053 M -4.020219711777531 -1.9074034988092694 Q -4.030915113444859 -2.018891652364589 -4.085823080403437 -2.072895033411295 Q -4.1407310473620145 -2.1268984144580014 -4.231315172125711 -2.1182084006032973 Q -4.321899296889409 -2.109518386748593 -4.365538894234194 -2.0460610345852306 Q -4.409178491578979 -1.982603682421868 -4.398483089911651 -1.8711155288665484 L -4.379384158362851 -1.6720295403749064 L -4.001120780228731 -1.7083175103176271 L -4.020219711777531 -1.9074034988092694 M -4.46099768624323 -2.429468233752797 L -4.458998799670357 -2.480429046663001 L -3.7595366616871684 -2.4529933486039615 L -3.761535548260041 -2.4020325356937575 L -4.46099768624323 -2.429468233752797 M -3.760004395645715 -2.737247696986247 Q -3.797193841717932 -2.6728315103493334 -3.84484871148043 -2.6409879334786464 L -3.878718979408414 -2.669724755684426 Q -3.8343433886316944 -2.7000695566100723 -3.8002390493786997 -2.7578916461962906 Q -3.7661347101257046 -2.8157137357825084 -3.755189027093853 -2.883840030434179 Q -3.739325718352039 -2.982573790798919 -3.7687542598323156 -3.0389560659068255 Q -3.7981828013125916 -3.0953383410147324 -3.858410395135083 -3.1050149593472387 Q -3.904815262506511 -3.112470714455891 -3.9367438087689277 -3.090254325605119 Q -3.9686723550313445 -3.0680379367543473 -3.989827742582781 -3.0309239289197234 Q -4.010983130134218 -2.9938099210850995 -4.03756758173701 -2.9292090934357664 Q -4.068541743937507 -2.8561981266158614 -4.0936902593681035 -2.813142323619784 Q -4.1188387747987 -2.770086520623706 -4.161019510276566 -2.743946789283346 Q -4.2032002457544335 -2.7178070579429856 -4.26540251478422 -2.7278009424503282 Q -4.315756732570238 -2.7358912299086535 -4.353435487364962 -2.7692912514224037 Q -4.391114242159687 -2.802691272936155 -4.406993545899165 -2.8614543371240386 Q -4.422872849638644 -2.920217401311923 -4.409706303382938 -3.002166422414657 Q -4.400505584312686 -3.059432003426206 -4.374837392155264 -3.112026146744352 Q -4.349169199997843 -3.1646202900624982 -4.314032452907925 -3.2005007722769157 L -4.276565639819326 -3.1752374012234714 Q -4.3118610199966625 -3.1383695814054064 -4.334682054965989 -3.090888528732485 Q -4.357503089935316 -3.0434074760595635 -4.3652761112188045 -2.995027933480841 Q -4.380663520698365 -2.899256185927043 -4.350089008527023 -2.8437026153353657 Q -4.319514496355681 -2.7881490447436885 -4.258299564929542 -2.778313793323764 Q -4.211894697558114 -2.770858038215111 -4.179966151295697 -2.7930744270658834 Q -4.148037605033281 -2.815290815916655 -4.126882217481844 -2.852404823751279 Q -4.105726829930408 -2.889518831585903 -4.07799640763655 -2.9549483637514653 Q -4.047022245436053 -3.0279593305713703 -4.021953046549165 -3.070521464765624 Q -3.996883847662278 -3.113083598959878 -3.9556904497880585 -3.1393819633876565 Q -3.914497051913839 -3.165680327815435 -3.8532821204877004 -3.1558450763955106 Q -3.8029279027016827 -3.1477547889371853 -3.765822133252491 -3.1139404151653203 Q -3.728716363803299 -3.080126041393455 -3.713075009694948 -3.0198819708000997 Q -3.6974336555865968 -2.9596379002067446 -3.710600201842302 -2.87768887910401 Q -3.7228149495734986 -2.8016638836231604 -3.760004395645715 -2.737247696986247 M -3.5175674971768705 -3.767156269068211 L -3.4740361526318257 -3.752289458983307 L -3.6301376585233163 -3.295210341260337 L -4.29257116246965 -3.521444407769743 L -4.141317529431933 -3.9643285218367206 L -4.097786184886888 -3.949461711751817 L -4.232557050221777 -3.554840610115215 L -3.971368982951508 -3.465639749605792 L -3.850818544654353 -3.818622173851481 L -3.8082335336863746 -3.8040785552901624 L -3.9287839719835294 -3.4510961310444728 L -3.6571862353655327 -3.3583401637756163 L -3.5175674971768705 -3.767156269068211 M -3.2482589646681066 -4.264500584795794 Q -3.3320095886657826 -4.22081897562214 -3.4257875729258904 -4.225608512980907 Q -3.519565557185998 -4.230398050339674 -3.6039705455614275 -4.285866941957802 Q -3.6883755339368567 -4.34133583357593 -3.729979808259121 -4.425516201584854 Q -3.7715840825813856 -4.5096965695937765 -3.764717210371229 -4.603904297865132 Q -3.757850338161073 -4.698112026136486 -3.7012830526495164 -4.78418840042034 Q -3.6595440846992418 -4.847701064940464 -3.603921002731339 -4.887730088815547 Q -3.548297920763436 -4.92775911269063 -3.483470796359115 -4.9390038421878995 L -3.473467231164966 -4.894138168411543 Q -3.5889622898885642 -4.869523306834994 -3.660907089908116 -4.7600475298332 Q -3.7092364212189604 -4.6865065498625285 -3.7153508832138913 -4.604368779290686 Q -3.721465345208822 -4.522231008718845 -3.6850660667521438 -4.4492492128527985 Q -3.6486667882954653 -4.376267416986753 -3.5759615012790062 -4.328487282622623 Q -3.503256214262547 -4.280707148258493 -3.4218227861753094 -4.276252174637845 Q -3.3403893580880717 -4.271797201017198 -3.2674194597561668 -4.309999215851908 Q -3.194449561424262 -4.34820123068662 -3.146120230113418 -4.421742210657291 Q -3.0747246270405797 -4.530382294704873 -3.0982410947237007 -4.647548739336895 L -3.0530889249398463 -4.656167414630119 Q -3.0376895257397987 -4.5921997782482915 -3.052220404947556 -4.524567659033753 Q -3.0667512841553135 -4.456935539819215 -3.1079410551588738 -4.394258568253302 Q -3.16450834067043 -4.308182193969448 -3.2482589646681066 -4.264500584795794 M -2.9570179693526093 -5.635512034428043 L -2.4616873817897265 -5.140893384330203 L -2.4977238834397117 -5.104805012950622 L -2.733359720094626 -5.340102170782879 L -3.06404761758861 -5.008938292240837 L -2.828411780933696 -4.77364113440858 L -2.8644482825836812 -4.737552763028998 L -3.359778870146564 -5.232171413126838 L -3.323742368496579 -5.268259784506419 L -3.0958902982176526 -5.040735205461413 L -2.7652024007236684 -5.371899084003455 L -2.9930544710025946 -5.599423663048461 L -2.9570179693526093 -5.635512034428043 M -2.0157395536173435 -5.695083587178904 L -2.3543833022667195 -5.471127315775984 L -2.3199495785312987 -5.257716166419367 L -2.3658249632005495 -5.227377262657887 L -2.4833769408284923 -5.988866285924644 L -2.440837947771551 -6.016998723958015 L -1.7861269205618393 -5.61075068291658 L -1.8320023052310899 -5.5804117791551 L -2.0157395536173435 -5.695083587178904 M -2.0553069203529684 -5.720469084802716 L -2.4316339730580543 -5.955947214152989 L -2.36142085078233 -5.518025854248846 L -2.0553069203529684 -5.720469084802716 M -1.0525161225213198 -5.906189130423556 L -1.2664927048047168 -6.465667478739482 L -1.3603693817188258 -5.8885434283555425 L -1.3837347411108807 -5.8796518604128165 L -1.83683076291112 -6.246488329467894 L -1.6245001204388234 -5.688523547185623 L -1.6712308392229331 -5.670740411300171 L -1.9201947416192608 -6.324970474277708 L -1.8800063234649265 -6.340263971139197 L -1.3950584935958088 -5.945960024538058 L -1.2949377242878723 -6.562908832425055 L -1.25568392050922 -6.577846666568835 L -1.00578540373721 -5.923972266309008 L -1.0525161225213198 -5.906189130423556 M -0.28010632697493965 -6.3451819459385845 Q -0.2348424105499387 -6.305984651773419 -0.22503054677160483 -6.234656345125949 Q -0.21290199293449763 -6.146486632742272 -0.2707543605834627 -6.090076495732963 Q -0.32860672823242765 -6.0336663587236545 -0.45541260671681755 -6.01622304533995 L -0.764501935522518 -5.973704968967169 L -0.8598950555896532 -6.667174616928677 L -0.5706191452971388 -6.706967175585254 Q -0.4576826597719789 -6.722502626567615 -0.3884382273024396 -6.685089947273405 Q -0.31919379483290045 -6.647677267979195 -0.3074740686532238 -6.5624795683724955 Q -0.29929751550461214 -6.5030393128329385 -0.32491633834466205 -6.458129114477886 Q -0.35053516118471195 -6.413218916122833 -0.40157842522573045 -6.388027941627216 Q -0.3253702433999406 -6.38437924010375 -0.28010632697493965 -6.3451819459385845 M -0.8033746994053806 -6.630535166375988 L -0.7653537272643367 -6.354137978117044 L -0.5285833760317649 -6.3867079148256805 Q -0.43744165087110964 -6.399245296320218 -0.3932412339972364 -6.441159770528728 Q -0.3490408171233631 -6.483074244737237 -0.3584438532442664 -6.551430538607729 Q -0.3677106134793595 -6.618796161552561 -0.42158661824575655 -6.647219323065861 Q -0.4754626230121536 -6.6756424845791615 -0.5666043481728088 -6.663105103084624 L -0.8033746994053806 -6.630535166375988 M -0.3131878816243666 -6.116036008287539 Q -0.2660154519735154 -6.158359310153479 -0.2760998675234697 -6.231668958652267 Q -0.28618428307342403 -6.304978607151055 -0.34296416267389385 -6.332497605544095 Q -0.3997440422743636 -6.360016603937135 -0.5007924766916119 -6.3461164635844955 L -0.7593575882886883 -6.310548457388035 L -0.7199738572895424 -6.024244559872498 L -0.46140874569246604 -6.059812566068959 Q -0.36036031127521784 -6.073712706421599 -0.3131878816243666 -6.116036008287539 M 0.46848132394672654 -6.070177489905887 L 0.4660861703739741 -6.024239888321096 L -0.016258646266324395 -6.049389000834997 L 0.020189342884255945 -6.74843945973398 L 0.487554506833862 -6.724071375559021 L 0.48515935326110954 -6.67813377397423 L 0.06872500845985802 -6.699846361796791 L 0.05435408702334349 -6.424220752288049 L 0.42684811726523036 -6.404799180926382 L 0.42450503224840735 -6.359860222854305 L 0.05201100200652048 -6.379281794215971 L 0.03706732645478253 -6.092671106067388 L 0.46848132394672654 -6.070177489905887 M 1.1233495399272793 -5.88041620832378 L 1.0158589006674403 -6.147044718561359 Q 0.9787178145794992 -6.150857817590779 0.9485816629343715 -6.158125029162067 L 0.7541548781270951 -6.205010265105859 L 0.7004712829714532 -5.982391596501527 L 0.6508924528455977 -5.9943473316671945 L 0.8149907786488699 -6.674841078492662 L 1.0589963935820017 -6.616000107383202 Q 1.1873180715548042 -6.5850558516603 1.2455764796250979 -6.506715517929104 Q 1.3038348876953916 -6.428375184197908 1.2778135817465868 -6.32046831862987 Q 1.2583562088299132 -6.23978120293485 1.2037954379042457 -6.194818748864851 Q 1.1492346669785782 -6.1498562947948505 1.0670442848461679 -6.146016882739811 L 1.1797333075213894 -5.86681948990008 L 1.1233495399272793 -5.88041620832378 M 0.9591308410217247 -6.201871055743704 Q 1.0680098405137994 -6.1756153236151805 1.1369698379280346 -6.209904808251562 Q 1.2059298353422696 -6.244194292887945 1.227262617696695 -6.332658479975255 Q 1.2485954000511206 -6.4211226670625665 1.2028435944290623 -6.483074440905786 Q 1.1570917888070045 -6.545026214749005 1.0482127893149296 -6.571281946877529 L 0.8537860045076533 -6.618167182821321 L 0.7647040562144484 -6.248756291687496 L 0.9591308410217247 -6.201871055743704 M 1.701663225172555 -5.6882879531688575 Q 1.6520808328725483 -5.769484236173736 1.6503473328934313 -5.863368446655703 Q 1.6486138329143143 -5.957252657137671 1.6975983405508788 -6.044433606958164 Q 1.7465828481874435 -6.131614556778658 1.827671250537795 -6.178963485005888 Q 1.9087596528881465 -6.22631241323312 2.0038976372901582 -6.2261944135613 Q 2.0990356216921704 -6.226076413889482 2.1888320000072783 -6.17562237102382 Q 2.278628378322386 -6.125168328158159 2.328455693160576 -6.044407949902383 Q 2.3782830079987654 -5.963647571646607 2.3800165079778823 -5.86976336116464 Q 2.3817500079569993 -5.775879150682672 2.332275655244069 -5.687826391363974 Q 2.282801302531139 -5.5997736320452765 2.2017129001807874 -5.552424703818045 Q 2.120624497830436 -5.5050757755908135 2.0257314359666068 -5.505629680011735 Q 1.9308383741027777 -5.506183584432657 1.8410419957876698 -5.5566376272983184 Q 1.751245617472562 -5.60709167016398 1.701663225172555 -5.6882879531688575 M 2.0222762276460653 -5.554599686500009 Q 2.103768505073241 -5.554693066006246 2.1740467723834214 -5.596071987498703 Q 2.2443250396936016 -5.637450908991159 2.2869415613374127 -5.713298335334987 Q 2.329558082981224 -5.7891457616788164 2.3283479714385997 -5.870691979433256 Q 2.3271378598959753 -5.952238197187695 2.284833188578051 -6.021889577537853 Q 2.242528517260127 -6.091540957888012 2.1658092814180927 -6.1346473246081885 Q 2.089090045576059 -6.177753691328365 2.00716186339978 -6.177905234360312 Q 1.925233681223502 -6.178056777392258 1.8549554139133217 -6.136677855899801 Q 1.7846771466031415 -6.095298934407345 1.7420606249593305 -6.019451508063516 Q 1.6994441033155192 -5.943604081719687 1.7006542148581434 -5.862057863965248 Q 1.7018643264007676 -5.780511646210809 1.7446049024677943 -5.710615343322468 Q 1.7873454785348213 -5.640719040434127 1.8640647143768552 -5.59761267371395 Q 1.940783950218889 -5.5545063069937735 2.0222762276460653 -5.554599686500009 M 2.761301055375892 -5.7309708163979485 L 2.5670659112685383 -5.503652298028689 L 2.8506438622776824 -5.2613455797944315 L 2.8207615324150126 -5.226373500045314 L 2.537183581405869 -5.468680218279571 L 2.3364522786327178 -5.233759073877895 L 2.297678885867392 -5.266889483073463 L 2.752409992473236 -5.799073305342634 L 3.1082128907903392 -5.495053079783299 L 3.0783305609276694 -5.460081000034181 L 2.761301055375892 -5.7309708163979485 M 3.031329302821561 -4.581878418890478 Q 3.020976788938322 -4.675767052155093 3.0594336521285164 -4.761431045020069 Q 3.0978905153187104 -4.847095037885045 3.180182454815572 -4.905653015085806 Q 3.2624743943124335 -4.964210992286568 3.3560105429884928 -4.972471675723803 Q 3.449546691664551 -4.9807323591610375 3.5348581999409716 -4.940183665524839 Q 3.6201697082173916 -4.8996349718886405 3.6798872493231185 -4.815713489035406 Q 3.72395067771181 -4.753790841493212 3.741094816555133 -4.687440796253433 Q 3.758238955398456 -4.621090751013653 3.7452201027072176 -4.556596491776075 L 3.6997796148476056 -4.563536381046119 Q 3.7187039801285517 -4.680099104069877 3.642752544353307 -4.786834193912341 Q 3.591731732534822 -4.858534101592775 3.5173965648285916 -4.89400638432291 Q 3.443061397122361 -4.9294786670530435 3.361848933758401 -4.922009678208664 Q 3.280636470394441 -4.9145406893642845 3.209751334392194 -4.864099659498282 Q 3.1388661983899473 -4.81365862963228 3.1051958551295753 -4.739378363176587 Q 3.0715255118692038 -4.665098096720894 3.0806789453204946 -4.5832432577921365 Q 3.089832378771785 -4.501388418863379 3.14085319059027 -4.429688511182945 Q 3.2162248444130324 -4.323768193018668 3.333947131341756 -4.303214284381348 L 3.3256126884410424 -4.258008786247441 Q 3.260413460026353 -4.266843978046671 3.2026482321365446 -4.304902202477646 Q 3.1448830042467364 -4.342960426908622 3.1013993578105272 -4.404068302772628 Q 3.0416818167048008 -4.487989785625864 3.031329302821561 -4.581878418890478 M 3.4086704674379082 -3.9808957128960305 Q 3.4178539715230642 -4.075589499665374 3.472903501689171 -4.1516605140433285 Q 3.527953031855278 -4.227731528421282 3.619505217926984 -4.267958350635966 Q 3.71105740399869 -4.308185172850649 3.8043224152687465 -4.297281610460483 Q 3.8975874265388026 -4.286378048070316 3.9735474555003334 -4.229095205960628 Q 4.049507484461864 -4.171812363850941 4.090941111342988 -4.077513612197083 Q 4.132374738224112 -3.9832148605432263 4.123648995069314 -3.888722207884956 Q 4.114923251914517 -3.7942295552266856 4.05987372174841 -3.718158540848732 Q 4.004824191582303 -3.642087526470778 3.9123564836498805 -3.6014584360339477 Q 3.8198887757174576 -3.560829345597117 3.7266237644474014 -3.5717329079872835 Q 3.633358753177345 -3.5826364703774503 3.5578564851461727 -3.6401204465982113 Q 3.4823542171150006 -3.697604422818973 3.4409205902338766 -3.79190317447283 Q 3.3994869633527527 -3.8862019261266867 3.4086704674379082 -3.9808957128960305 M 3.5845316394376074 -3.6813325339455925 Q 3.6497135576387154 -3.6324212107205547 3.7307508459272882 -3.6232447240925074 Q 3.811788134215861 -3.6140682374644597 3.891438536098245 -3.6490655727912347 Q 3.971088937980629 -3.684062908118009 4.019140232053161 -3.7499592140687605 Q 4.0671915261256935 -3.815855520019512 4.07525135678195 -3.8969483010162964 Q 4.083311187438207 -3.978041082013081 4.047911583889286 -4.058607005756182 Q 4.012511980340364 -4.139172929499283 3.9471289280281834 -4.188542013654679 Q 3.8817458757160024 -4.237911097810075 3.8007085874274296 -4.247087584438123 Q 3.7196712991388567 -4.2562640710661706 3.6400208972564725 -4.221266735739396 Q 3.5603704953740887 -4.186269400412621 3.5123192013015565 -4.12037309446187 Q 3.464267907229024 -4.054476788511119 3.4564092106838404 -3.972926246583975 Q 3.448550514138657 -3.8913757046568325 3.4839501176875785 -3.8108097809137313 Q 3.5193497212365 -3.7302438571706302 3.5845316394376074 -3.6813325339455925 M 3.7589959395244597 -2.636342270229129 L 4.3486049333176355 -2.741998478935474 L 3.799190328068508 -2.942069945014337 L 3.7948217306233083 -2.966685292998101 L 4.239867183918244 -3.3432480958630486 L 3.6520526740659607 -3.2389259888716695 L 3.6433154791755604 -3.2881566848391977 L 4.332545222720951 -3.410477413304801 L 4.340059210326695 -3.368139014772727 L 3.862077919971949 -2.965418409301872 L 4.449448890354506 -2.7517707012592783 L 4.4567881340624425 -2.710416916646555 L 3.76773313441486 -2.587111574261601 L 3.7589959395244597 -2.636342270229129 M 3.7279161090381816 -1.6802754175487302 L 4.325155561624236 -1.634372952748786 L 3.8436496810949263 -1.9660913378523168 L 3.845607084890596 -1.9910145914597555 L 4.371000650101804 -2.2436538632182375 L 3.7758333539561715 -2.2903966658588257 L 3.77974816154751 -2.340243173073703 L 4.477599262555789 -2.2854358667949564 L 4.474232528027238 -2.242567870590162 L 3.9103866244404855 -1.9728869535633198 L 4.4252191369836735 -1.6184896002599007 L 4.421930698606948 -1.5766185341994041 L 3.7240013014468425 -1.630428910333853 L 3.7279161090381816 -1.6802754175487302 M 3.567221375948246 -0.9162405005892433 L 3.523198725488468 -0.9295823987486579 L 3.66328865616232 -1.391820228576329 L 4.333198554463293 -1.18879134354176 L 4.1974592427544675 -0.7409087258205383 L 4.153436592294689 -0.7542506239799529 L 4.2743837995224245 -1.1533255205392465 L 4.010247896763755 -1.2333769094957339 L 3.902062505166764 -0.8764106351153583 L 3.8589968688474157 -0.8894624920104378 L 3.9671822604444076 -1.2464287663908133 L 3.6925192021410087 -1.3296706092549866 L 3.567221375948246 -0.9162405005892433 M 3.2259488623787336 -0.3259907265349169 L 3.5105747520130888 -0.36640239502128413 Q 3.52318365893108 -0.4015451818534838 3.5374659747086463 -0.429059095715926 L 3.629609947467137 -0.6065682174091013 L 3.426362003128451 -0.7120730662175732 L 3.449858716181866 -0.7573378922493329 L 4.07114064210798 -0.43483398759461533 L 3.955499956296074 -0.21206003986968036 Q 3.89468493427547 -0.09490401955218464 3.804659343961919 -0.05713309040427228 Q 3.7146337536483673 -0.01936216125635981 3.616116191108655 -0.07050206613732213 Q 3.5424499056059875 -0.10874181483209577 3.511884172938845 -0.17249317549616927 Q 3.481318440271702 -0.23624453616024255 3.497301760516591 -0.31695719609627326 L 3.1992271102787715 -0.27451308124389606 L 3.2259488623787336 -0.3259907265349169 M 3.577405527089611 -0.40832670184526554 Q 3.5258049023448557 -0.3089215936970874 3.542555938000162 -0.23375076953987428 Q 3.559306973655468 -0.15857994538266107 3.6400736240258627 -0.1166544377775478 Q 3.7208402743962576 -0.07472893017243454 3.791956253979073 -0.10428848781419475 Q 3.863072233561889 -0.13384804545595497 3.9146728583066435 -0.23325315360413312 L 4.006816831065135 -0.41076227529730847 L 3.6695494998481015 -0.5858358235384409 L 3.577405527089611 -0.40832670184526554 M 3.0608647385478083 -0.017142035232705494 Q 3.1481369321500474 -0.053278086813547815 3.241128721667888 -0.04024823331208505 Q 3.334120511185729 -0.027218379810622306 3.413312448339852 0.03546843770133529 Q 3.4925043854939744 0.09815525521329294 3.5265333268570034 0.18567257435477214 Q 3.560562268220033 0.27318989349625133 3.545425304500757 0.3664268085533322 Q 3.5302883407814813 0.4596637236104132 3.4663602001504747 0.5404238179359047 Q 3.4191899216266255 0.6000137904479178 3.360257656467801 0.6349886117233722 Q 3.301325391308976 0.6699634329988265 3.2357598490175308 0.6754552144974559 L 3.229746425594725 0.6298828682912525 Q 3.3469605192065726 0.615535176534284 3.42826718350426 0.5128208818096298 Q 3.4828854007424015 0.44382196626940407 3.4962098896007783 0.36254184571915515 Q 3.509534378459155 0.28126172516890624 3.4797039621089034 0.205357863209381 Q 3.4498735457586522 0.12945400124985584 3.381658708804111 0.07545644557123887 Q 3.3134438718495693 0.021458889892621902 3.232719207618323 0.00984947195921615 Q 3.151994543387076 -0.0017599459741896029 3.0759437676739485 0.029867249814112706 Q 2.9998929919608215 0.06149444560241496 2.94527477472268 0.1304933611426407 Q 2.8645887719845167 0.23242357728161056 2.877695140622437 0.35120582806482714 L 2.8319593773900733 0.3558145113424245 Q 2.822253375455818 0.2907392201294592 2.8426840814030276 0.2246496123647081 Q 2.863114787350238 0.15856000459995706 2.9096644043145625 0.09975411067362827 Q 2.973592544945569 0.018994016348136827 3.0608647385478083 -0.017142035232705494 M 2.2999933262252776 0.768759607794627 L 2.2697585444436865 0.7340917845197292 L 2.6337706888301144 0.4166265758130201 L 3.0938651942021567 0.9441804082571186 L 2.7411577747966733 1.2517864489915695 L 2.710922993015082 1.2171186257166717 L 3.0251943474853524 0.943033756087898 L 2.8437856567958044 0.7350268164385105 L 2.562674828936306 0.9801914600153273 L 2.533097325019532 0.9462772850724924 L 2.81420815287903 0.7011126414956756 L 2.625569405676493 0.48481557019359534 L 2.2999933262252776 0.768759607794627" fill="#040000" fill-rule="nonzero"/></g><g transform="matrix(1,0,0,1,0,0)"><path d=" M -0.32862753906250003 1.5300346212664888 Q -0.3328025390625 1.5277346212664888 -0.33517753906250003 1.5236596212664888 Q -0.33755253906250005 1.5195846212664887 -0.33755253906250005 1.5145346212664887 Q -0.33755253906250005 1.5094846212664887 -0.33517753906250003 1.505409621266489 Q -0.3328025390625 1.5013346212664889 -0.32860253906250003 1.499034621266489 Q -0.32440253906250005 1.4967346212664887 -0.3192025390625 1.4967346212664887 Q -0.31530253906250005 1.4967346212664887 -0.31200253906250003 1.4980346212664888 Q -0.30870253906250006 1.4993346212664889 -0.30640253906250003 1.5018346212664888 L -0.30875253906250005 1.5041846212664889 Q -0.31285253906250005 1.5000346212664888 -0.3191025390625 1.5000346212664888 Q -0.3232525390625 1.5000346212664888 -0.3266525390625 1.5019346212664888 Q -0.33005253906250004 1.5038346212664888 -0.33197753906250005 1.507134621266489 Q -0.33390253906250006 1.5104346212664888 -0.33390253906250006 1.5145346212664887 Q -0.33390253906250006 1.5186346212664887 -0.33197753906250005 1.5219346212664888 Q -0.33005253906250004 1.525234621266489 -0.3266525390625 1.527134621266489 Q -0.3232525390625 1.529034621266489 -0.3191025390625 1.529034621266489 Q -0.31280253906250005 1.529034621266489 -0.30875253906250005 1.5248346212664887 L -0.30640253906250003 1.5271846212664888 Q -0.30870253906250006 1.5296846212664887 -0.3120275390625 1.5310096212664888 Q -0.31535253906250005 1.5323346212664888 -0.31925253906250006 1.5323346212664888 Q -0.32445253906250004 1.5323346212664888 -0.32862753906250003 1.5300346212664888 M -0.26917783203125006 1.497034621266489 L -0.26917783203125006 1.5320346212664888 L -0.27282783203125005 1.5320346212664888 L -0.27282783203125005 1.5158846212664887 L -0.29472783203125 1.5158846212664887 L -0.29472783203125 1.5320346212664888 L -0.29842783203125006 1.5320346212664888 L -0.29842783203125006 1.497034621266489 L -0.29472783203125 1.497034621266489 L -0.29472783203125 1.5126346212664887 L -0.27282783203125005 1.5126346212664887 L -0.27282783203125005 1.497034621266489 L -0.26917783203125006 1.497034621266489 M -0.23575341796875005 1.5226846212664888 L -0.25525341796875006 1.5226846212664888 L -0.25945341796875004 1.5320346212664888 L -0.26330341796875006 1.5320346212664888 L -0.24730341796875005 1.497034621266489 L -0.24365341796875006 1.497034621266489 L -0.22765341796875005 1.5320346212664888 L -0.23155341796875006 1.5320346212664888 L -0.23575341796875005 1.5226846212664888 M -0.23710341796875006 1.5196846212664887 L -0.24550341796875005 1.5008846212664888 L -0.25390341796875004 1.5196846212664887 L -0.23710341796875006 1.5196846212664887 M -0.18542941894531254 1.497034621266489 L -0.18542941894531254 1.5320346212664888 L -0.18897941894531253 1.5320346212664888 L -0.18897941894531253 1.5040346212664888 L -0.20272941894531255 1.5275846212664888 L -0.20447941894531255 1.5275846212664888 L -0.21822941894531253 1.5041846212664889 L -0.21822941894531253 1.5320346212664888 L -0.22177941894531253 1.5320346212664888 L -0.22177941894531253 1.497034621266489 L -0.21872941894531253 1.497034621266489 L -0.20352941894531254 1.5229846212664888 L -0.18847941894531253 1.497034621266489 L -0.18542941894531254 1.497034621266489 M -0.14657856445312506 1.5169596212664889 Q -0.14470356445312504 1.5191846212664888 -0.14470356445312504 1.5226846212664888 Q -0.14470356445312504 1.5271846212664888 -0.14802856445312507 1.529609621266489 Q -0.15135356445312506 1.5320346212664888 -0.15785356445312504 1.5320346212664888 L -0.17395356445312504 1.5320346212664888 L -0.17395356445312504 1.497034621266489 L -0.15885356445312504 1.497034621266489 Q -0.15300356445312505 1.497034621266489 -0.14977856445312504 1.4993846212664887 Q -0.14655356445312506 1.5017346212664888 -0.14655356445312506 1.5060346212664888 Q -0.14655356445312506 1.508934621266489 -0.14797856445312504 1.5109596212664889 Q -0.14940356445312505 1.5129846212664888 -0.15190356445312506 1.513984621266489 Q -0.14845356445312505 1.5147346212664887 -0.14657856445312506 1.5169596212664889 M -0.17025356445312506 1.500084621266489 L -0.17025356445312506 1.5127846212664888 L -0.15910356445312504 1.5127846212664888 Q -0.15485356445312504 1.5127846212664888 -0.15255356445312504 1.5111596212664888 Q -0.15025356445312504 1.5095346212664889 -0.15025356445312504 1.5064346212664887 Q -0.15025356445312504 1.5033346212664889 -0.15255356445312504 1.5017096212664889 Q -0.15485356445312504 1.500084621266489 -0.15910356445312504 1.500084621266489 L -0.17025356445312506 1.500084621266489 M -0.15080356445312504 1.5273846212664888 Q -0.14840356445312505 1.5257846212664887 -0.14840356445312505 1.5223846212664889 Q -0.14840356445312505 1.5158346212664888 -0.15790356445312506 1.5158346212664888 L -0.17025356445312506 1.5158346212664888 L -0.17025356445312506 1.5289846212664888 L -0.15790356445312506 1.5289846212664888 Q -0.15320356445312505 1.5289846212664888 -0.15080356445312504 1.5273846212664888 M -0.11142714843750004 1.5288346212664887 L -0.11142714843750004 1.5320346212664888 L -0.13617714843750003 1.5320346212664888 L -0.13617714843750003 1.497034621266489 L -0.11217714843750004 1.497034621266489 L -0.11217714843750004 1.5002346212664888 L -0.13247714843750005 1.5002346212664888 L -0.13247714843750005 1.5126846212664888 L -0.11437714843750005 1.5126846212664888 L -0.11437714843750005 1.5158346212664888 L -0.13247714843750005 1.5158346212664888 L -0.13247714843750005 1.5288346212664887 L -0.11142714843750004 1.5288346212664887 M -0.07875183105468754 1.5320346212664888 L -0.08675183105468753 1.5207846212664888 Q -0.08810183105468754 1.5209346212664887 -0.08955183105468754 1.5209346212664887 L -0.09895183105468754 1.5209346212664887 L -0.09895183105468754 1.5320346212664888 L -0.10265183105468755 1.5320346212664888 L -0.10265183105468755 1.497034621266489 L -0.08955183105468754 1.497034621266489 Q -0.08285183105468755 1.497034621266489 -0.07905183105468754 1.5002346212664888 Q -0.07525183105468754 1.5034346212664889 -0.07525183105468754 1.509034621266489 Q -0.07525183105468754 1.513134621266489 -0.07732683105468754 1.5159596212664888 Q -0.07940183105468754 1.5187846212664888 -0.08325183105468754 1.5200346212664888 L -0.07470183105468754 1.5320346212664888 L -0.07875183105468754 1.5320346212664888 M -0.08170183105468753 1.5154846212664888 Q -0.07895183105468753 1.5131846212664888 -0.07895183105468753 1.509034621266489 Q -0.07895183105468753 1.5047846212664888 -0.08170183105468753 1.5025096212664888 Q -0.08445183105468754 1.5002346212664888 -0.08965183105468755 1.5002346212664888 L -0.09895183105468754 1.5002346212664888 L -0.09895183105468754 1.5177846212664887 L -0.08965183105468755 1.5177846212664887 Q -0.08445183105468754 1.5177846212664887 -0.08170183105468753 1.5154846212664888 M -0.04737451171875004 1.5300096212664889 Q -0.05159951171875004 1.5276846212664887 -0.05397451171875004 1.5236346212664889 Q -0.056349511718750044 1.5195846212664887 -0.056349511718750044 1.5145346212664887 Q -0.056349511718750044 1.5094846212664887 -0.05397451171875004 1.5054346212664889 Q -0.05159951171875004 1.5013846212664888 -0.04737451171875004 1.4990596212664888 Q -0.04314951171875004 1.4967346212664887 -0.03794951171875004 1.4967346212664887 Q -0.03274951171875004 1.4967346212664887 -0.02857451171875004 1.499034621266489 Q -0.024399511718750037 1.5013346212664889 -0.021999511718750038 1.505409621266489 Q -0.01959951171875004 1.5094846212664887 -0.01959951171875004 1.5145346212664887 Q -0.01959951171875004 1.5195846212664887 -0.021999511718750038 1.5236596212664888 Q -0.024399511718750037 1.5277346212664888 -0.02857451171875004 1.5300346212664888 Q -0.03274951171875004 1.5323346212664888 -0.03794951171875004 1.5323346212664888 Q -0.04314951171875004 1.5323346212664888 -0.04737451171875004 1.5300096212664889 M -0.03044951171875004 1.5271596212664889 Q -0.02709951171875004 1.5252846212664888 -0.02519951171875004 1.5219596212664888 Q -0.02329951171875004 1.5186346212664887 -0.02329951171875004 1.5145346212664887 Q -0.02329951171875004 1.5104346212664888 -0.02519951171875004 1.5071096212664887 Q -0.02709951171875004 1.5037846212664887 -0.03044951171875004 1.5019096212664889 Q -0.033799511718750036 1.5000346212664888 -0.03794951171875004 1.5000346212664888 Q -0.04209951171875004 1.5000346212664888 -0.04547451171875004 1.5019096212664889 Q -0.048849511718750044 1.5037846212664887 -0.05077451171875004 1.5071096212664887 Q -0.05269951171875004 1.5104346212664888 -0.05269951171875004 1.5145346212664887 Q -0.05269951171875004 1.5186346212664887 -0.05077451171875004 1.5219596212664888 Q -0.048849511718750044 1.5252846212664888 -0.04547451171875004 1.5271596212664889 Q -0.04209951171875004 1.529034621266489 -0.03794951171875004 1.529034621266489 Q -0.033799511718750036 1.529034621266489 -0.03044951171875004 1.5271596212664889 M -0.0075250488281250315 1.5002346212664888 L -0.0075250488281250315 1.513984621266489 L 0.010574951171874968 1.513984621266489 L 0.010574951171874968 1.5171846212664888 L -0.0075250488281250315 1.5171846212664888 L -0.0075250488281250315 1.5320346212664888 L -0.011225048828125032 1.5320346212664888 L -0.011225048828125032 1.497034621266489 L 0.012774951171874969 1.497034621266489 L 0.012774951171874969 1.5002346212664888 L -0.0075250488281250315 1.5002346212664888 M 0.03950092773437497 1.5300346212664888 Q 0.035325927734374964 1.5277346212664888 0.03295092773437497 1.5236596212664888 Q 0.030575927734374966 1.5195846212664887 0.030575927734374966 1.5145346212664887 Q 0.030575927734374966 1.5094846212664887 0.03295092773437497 1.505409621266489 Q 0.035325927734374964 1.5013346212664889 0.039525927734374966 1.499034621266489 Q 0.04372592773437496 1.4967346212664887 0.048925927734374965 1.4967346212664887 Q 0.052825927734374965 1.4967346212664887 0.05612592773437497 1.4980346212664888 Q 0.05942592773437497 1.4993346212664889 0.061725927734374963 1.5018346212664888 L 0.05937592773437497 1.5041846212664889 Q 0.055275927734374966 1.5000346212664888 0.04902592773437497 1.5000346212664888 Q 0.04487592773437497 1.5000346212664888 0.041475927734374966 1.5019346212664888 Q 0.038075927734374966 1.5038346212664888 0.03615092773437496 1.507134621266489 Q 0.03422592773437497 1.5104346212664888 0.03422592773437497 1.5145346212664887 Q 0.03422592773437497 1.5186346212664887 0.03615092773437496 1.5219346212664888 Q 0.038075927734374966 1.525234621266489 0.041475927734374966 1.527134621266489 Q 0.04487592773437497 1.529034621266489 0.04902592773437497 1.529034621266489 Q 0.05532592773437497 1.529034621266489 0.05937592773437497 1.5248346212664887 L 0.061725927734374963 1.5271846212664888 Q 0.05942592773437497 1.5296846212664887 0.056100927734374965 1.5310096212664888 Q 0.052775927734374964 1.5323346212664888 0.04887592773437496 1.5323346212664888 Q 0.04367592773437497 1.5323346212664888 0.03950092773437497 1.5300346212664888 M 0.07482490234374997 1.5300096212664889 Q 0.07059990234374997 1.5276846212664887 0.06822490234374998 1.5236346212664889 Q 0.06584990234374997 1.5195846212664887 0.06584990234374997 1.5145346212664887 Q 0.06584990234374997 1.5094846212664887 0.06822490234374998 1.5054346212664889 Q 0.07059990234374997 1.5013846212664888 0.07482490234374997 1.4990596212664888 Q 0.07904990234374998 1.4967346212664887 0.08424990234374997 1.4967346212664887 Q 0.08944990234374997 1.4967346212664887 0.09362490234374997 1.499034621266489 Q 0.09779990234374997 1.5013346212664889 0.10019990234374998 1.505409621266489 Q 0.10259990234374997 1.5094846212664887 0.10259990234374997 1.5145346212664887 Q 0.10259990234374997 1.5195846212664887 0.10019990234374998 1.5236596212664888 Q 0.09779990234374997 1.5277346212664888 0.09362490234374997 1.5300346212664888 Q 0.08944990234374997 1.5323346212664888 0.08424990234374997 1.5323346212664888 Q 0.07904990234374998 1.5323346212664888 0.07482490234374997 1.5300096212664889 M 0.09174990234374997 1.5271596212664889 Q 0.09509990234374997 1.5252846212664888 0.09699990234374997 1.5219596212664888 Q 0.09889990234374997 1.5186346212664887 0.09889990234374997 1.5145346212664887 Q 0.09889990234374997 1.5104346212664888 0.09699990234374997 1.5071096212664887 Q 0.09509990234374997 1.5037846212664887 0.09174990234374997 1.5019096212664889 Q 0.08839990234374998 1.5000346212664888 0.08424990234374997 1.5000346212664888 Q 0.08009990234374997 1.5000346212664888 0.07672490234374997 1.5019096212664889 Q 0.07334990234374997 1.5037846212664887 0.07142490234374997 1.5071096212664887 Q 0.06949990234374998 1.5104346212664888 0.06949990234374998 1.5145346212664887 Q 0.06949990234374998 1.5186346212664887 0.07142490234374997 1.5219596212664888 Q 0.07334990234374997 1.5252846212664888 0.07672490234374997 1.5271596212664889 Q 0.08009990234374997 1.529034621266489 0.08424990234374997 1.529034621266489 Q 0.08839990234374998 1.529034621266489 0.09174990234374997 1.5271596212664889 M 0.14732436523437498 1.497034621266489 L 0.14732436523437498 1.5320346212664888 L 0.14377436523437498 1.5320346212664888 L 0.14377436523437498 1.5040346212664888 L 0.13002436523437497 1.5275846212664888 L 0.12827436523437497 1.5275846212664888 L 0.11452436523437498 1.5041846212664889 L 0.11452436523437498 1.5320346212664888 L 0.11097436523437497 1.5320346212664888 L 0.11097436523437497 1.497034621266489 L 0.11402436523437498 1.497034621266489 L 0.12922436523437497 1.5229846212664888 L 0.14427436523437498 1.497034621266489 L 0.14732436523437498 1.497034621266489 M 0.19515021972656246 1.497034621266489 L 0.19515021972656246 1.5320346212664888 L 0.19160021972656247 1.5320346212664888 L 0.19160021972656247 1.5040346212664888 L 0.17785021972656245 1.5275846212664888 L 0.17610021972656245 1.5275846212664888 L 0.16235021972656247 1.5041846212664889 L 0.16235021972656247 1.5320346212664888 L 0.15880021972656247 1.5320346212664888 L 0.15880021972656247 1.497034621266489 L 0.16185021972656247 1.497034621266489 L 0.17705021972656246 1.5229846212664888 L 0.19210021972656247 1.497034621266489 L 0.19515021972656246 1.497034621266489 M 0.23137607421874995 1.5288346212664887 L 0.23137607421874995 1.5320346212664888 L 0.20662607421874996 1.5320346212664888 L 0.20662607421874996 1.497034621266489 L 0.23062607421874995 1.497034621266489 L 0.23062607421874995 1.5002346212664888 L 0.21032607421874994 1.5002346212664888 L 0.21032607421874994 1.5126846212664888 L 0.22842607421874994 1.5126846212664888 L 0.22842607421874994 1.5158346212664888 L 0.21032607421874994 1.5158346212664888 L 0.21032607421874994 1.5288346212664887 L 0.23137607421874995 1.5288346212664887 M 0.26405139160156244 1.5320346212664888 L 0.25605139160156243 1.5207846212664888 Q 0.25470139160156247 1.5209346212664887 0.25325139160156246 1.5209346212664887 L 0.24385139160156244 1.5209346212664887 L 0.24385139160156244 1.5320346212664888 L 0.24015139160156246 1.5320346212664888 L 0.24015139160156246 1.497034621266489 L 0.25325139160156246 1.497034621266489 Q 0.25995139160156244 1.497034621266489 0.26375139160156247 1.5002346212664888 Q 0.26755139160156244 1.5034346212664889 0.26755139160156244 1.509034621266489 Q 0.26755139160156244 1.513134621266489 0.26547639160156244 1.5159596212664888 Q 0.26340139160156245 1.5187846212664888 0.25955139160156243 1.5200346212664888 L 0.26810139160156243 1.5320346212664888 L 0.26405139160156244 1.5320346212664888 M 0.2611013916015624 1.5154846212664888 Q 0.26385139160156246 1.5131846212664888 0.26385139160156246 1.509034621266489 Q 0.26385139160156246 1.5047846212664888 0.2611013916015624 1.5025096212664888 Q 0.25835139160156245 1.5002346212664888 0.25315139160156247 1.5002346212664888 L 0.24385139160156244 1.5002346212664888 L 0.24385139160156244 1.5177846212664887 L 0.25315139160156247 1.5177846212664887 Q 0.25835139160156245 1.5177846212664887 0.2611013916015624 1.5154846212664888 M 0.28220251464843743 1.5300346212664888 Q 0.27802751464843745 1.5277346212664888 0.27565251464843743 1.5236596212664888 Q 0.2732775146484374 1.5195846212664887 0.2732775146484374 1.5145346212664887 Q 0.2732775146484374 1.5094846212664887 0.27565251464843743 1.505409621266489 Q 0.27802751464843745 1.5013346212664889 0.2822275146484374 1.499034621266489 Q 0.2864275146484374 1.4967346212664887 0.29162751464843745 1.4967346212664887 Q 0.2955275146484374 1.4967346212664887 0.29882751464843743 1.4980346212664888 Q 0.3021275146484374 1.4993346212664889 0.3044275146484374 1.5018346212664888 L 0.3020775146484374 1.5041846212664889 Q 0.2979775146484374 1.5000346212664888 0.29172751464843744 1.5000346212664888 Q 0.28757751464843745 1.5000346212664888 0.28417751464843743 1.5019346212664888 Q 0.2807775146484374 1.5038346212664888 0.2788525146484374 1.507134621266489 Q 0.2769275146484374 1.5104346212664888 0.2769275146484374 1.5145346212664887 Q 0.2769275146484374 1.5186346212664887 0.2788525146484374 1.5219346212664888 Q 0.2807775146484374 1.525234621266489 0.28417751464843743 1.527134621266489 Q 0.28757751464843745 1.529034621266489 0.29172751464843744 1.529034621266489 Q 0.2980275146484374 1.529034621266489 0.3020775146484374 1.5248346212664887 L 0.3044275146484374 1.5271846212664888 Q 0.3021275146484374 1.5296846212664887 0.29880251464843743 1.5310096212664888 Q 0.2954775146484374 1.5323346212664888 0.2915775146484374 1.5323346212664888 Q 0.2863775146484374 1.5323346212664888 0.28220251464843743 1.5300346212664888 M 0.3371522216796874 1.5288346212664887 L 0.3371522216796874 1.5320346212664888 L 0.3124022216796874 1.5320346212664888 L 0.3124022216796874 1.497034621266489 L 0.3364022216796874 1.497034621266489 L 0.3364022216796874 1.5002346212664888 L 0.31610222167968743 1.5002346212664888 L 0.31610222167968743 1.5126846212664888 L 0.33420222167968744 1.5126846212664888 L 0.33420222167968744 1.5158346212664888 L 0.31610222167968743 1.5158346212664888 L 0.31610222167968743 1.5288346212664887 L 0.3371522216796874 1.5288346212664887" fill="#ffffff" fill-rule="nonzero"/></g><g transform="matrix(1,0,0,1,0,0)"><g transform="matrix(1,0,0,1,0,0)" clip-path="url(#SvgjsClipPath43806)"><g clip-path="url(#SvgjsClipPath43801dc4ec5ed-518b-4550-aef2-a4e23d16c0c7)"><path d=" M -0.09598883272074943 -4.37250229700538 L -0.09598883272074943 -0.1875 L -0.8165283822349476 -0.1875 L -0.8165283822349476 -3.651962747491182 L -0.09598883272074943 -4.37250229700538 Z" fill="#bdbfc3" transform="matrix(1,0,0,1,0,0)" fill-rule="evenodd"/></g><g clip-path="url(#SvgjsClipPath43801dc4ec5ed-518b-4550-aef2-a4e23d16c0c7)"><path d=" M 0.09598883272074943 -4.37250229700538 L 0.09598883272074943 -0.1875 L 0.8162513581866917 -0.1875 L 0.8162513581866917 -3.651962747491182 L 0.09598883272074943 -4.37250229700538 Z" fill="#e8a941" transform="matrix(1,0,0,1,0,0)" fill-rule="evenodd"/></g><g clip-path="url(#SvgjsClipPath43801dc4ec5ed-518b-4550-aef2-a4e23d16c0c7)"><path d=" M 1.0082290236281906 -2.6840407228842578 L 1.0082290236281906 -1.7493615840680699 L 1.8154771002465582 -0.9421135074497027 L 1.8154771002465582 -0.1875 L 2.2601006976976494 -0.1875 L 2.2601006976976494 -1.432169048814799 L 1.0082290236281906 -2.6840407228842578 Z" fill="#e8a941" transform="matrix(1,0,0,1,0,0)" fill-rule="evenodd"/></g><g clip-path="url(#SvgjsClipPath43801dc4ec5ed-518b-4550-aef2-a4e23d16c0c7)"><path d=" M 1.0082290236281906 -1.4778780167770607 L 1.0082290236281906 -0.1875 L 1.6234994348050589 -0.1875 L 1.6234994348050589 -0.8626076056001928 L 1.0082290236281906 -1.4778780167770607 Z" fill="#bdbfc3" transform="matrix(1,0,0,1,0,0)" fill-rule="evenodd"/></g><g clip-path="url(#SvgjsClipPath43801dc4ec5ed-518b-4550-aef2-a4e23d16c0c7)"><path d=" M -1.0082290236281908 -2.6840407228842578 L -1.0082290236281908 -1.7493615840680699 L -1.8154771002465582 -0.9421135074497027 L -1.8154771002465582 -0.1875 L -2.2601006976976494 -0.1875 L -2.2601006976976494 -1.432169048814799 L -1.0082290236281908 -2.6840407228842578 Z" fill="#bdbfc3" transform="matrix(1,0,0,1,0,0)" fill-rule="evenodd"/></g><g clip-path="url(#SvgjsClipPath43801dc4ec5ed-518b-4550-aef2-a4e23d16c0c7)"><path d=" M -1.0082290236281908 -1.4778780167770607 L -1.0082290236281908 -0.1875 L -1.623499434805059 -0.1875 L -1.623499434805059 -0.8626076056001928 L -1.0082290236281908 -1.4778780167770607 Z" fill="#e8a941" transform="matrix(1,0,0,1,0,0)" fill-rule="evenodd"/></g></g></g></g><defs fill="#000000"><clipPath id="SvgjsClipPath43806" fill="#000000"><path d=" M -2.2601006976976494 -4.37250229700538 h 4.520201395395299 v 4.18500229700538 h -4.520201395395299 Z" fill="#000000"/></clipPath><clipPath id="SvgjsClipPath43801dc4ec5ed-518b-4550-aef2-a4e23d16c0c7" fill="#000000"><path d=" M -2.2601006976976494 -4.37250229700538 L 2.2601006976976494 -4.37250229700538 L 2.2601006976976494 -0.1875 L -2.2601006976976494 -0.1875 Z" fill="#000000"/></clipPath></defs></svg>